<svg width="52" height="52" viewBox="0 0 52 52" fill="none" xmlns="http://www.w3.org/2000/svg">
<path d="M0 0.5V10.1752C0 10.4514 0.223858 10.6752 0.5 10.6752H10.2697C10.5458 10.6752 10.7697 10.8991 10.7697 11.1752V21.2317C10.7697 21.5079 10.9936 21.7317 11.2697 21.7317H21.2317C21.5079 21.7317 21.7317 21.5079 21.7317 21.2317V0.5C21.7317 0.223858 21.5079 0 21.2317 0H0.5C0.223858 0 0 0.223857 0 0.5Z" fill="#1C156D"/>
<path d="M30 0.5V10.1752C30 10.4514 30.2239 10.6752 30.5 10.6752H40.2697C40.5458 10.6752 40.7697 10.8991 40.7697 11.1752V21.2317C40.7697 21.5079 40.9936 21.7317 41.2697 21.7317H51.2317C51.5079 21.7317 51.7317 21.5079 51.7317 21.2317V0.5C51.7317 0.223858 51.5079 0 51.2317 0H30.5C30.2239 0 30 0.223857 30 0.5Z" fill="#F26522"/>
<path d="M30 30.1342V39.8094C30 40.0855 30.2239 40.3094 30.5 40.3094H40.2697C40.5458 40.3094 40.7697 40.5332 40.7697 40.8094V50.8659C40.7697 51.142 40.9936 51.3659 41.2697 51.3659H51.2317C51.5079 51.3659 51.7317 51.142 51.7317 50.8659V30.1342C51.7317 29.858 51.5079 29.6342 51.2317 29.6342H30.5C30.2239 29.6342 30 29.858 30 30.1342Z" fill="#F26522"/>
</svg>
