<svg width="22" height="36" viewBox="0 0 22 36" fill="none" xmlns="http://www.w3.org/2000/svg">
<path d="M3.03634 0.5H18.9553C20.2297 0.5 21.2649 1.53531 21.2649 2.80929V32.307C21.2649 33.581 20.2297 34.6163 18.9553 34.6163H3.03634C1.76256 34.6163 0.726685 33.5809 0.726685 32.307V2.80929C0.726685 1.53539 1.76256 0.5 3.03634 0.5Z" stroke="white"/>
<path d="M17.0824 15.9197L11.9326 16.8554L9.59135 18.2602L8.18652 16.8554L6.31403 18.7286V20.1331H17.0824V15.9197Z" fill="white"/>
<path d="M9.73669 17.08L11.597 15.9648L17.0824 14.9673V12.6418L11.9326 13.5783L10.0597 14.9831L8.18652 13.5783L6.31403 14.9831V17.4042L8.18652 15.5313L9.73669 17.08Z" fill="white"/>
<mask id="path-4-inside-1_2_308" fill="white">
<path d="M17.0824 21.0695H5.37722V12.642C5.37722 12.3833 5.16749 12.1743 4.90919 12.1743C4.65089 12.1743 4.44116 12.3833 4.44116 12.642V21.0695C4.44116 21.5853 4.86136 22.0059 5.37759 22.0059H17.0831C17.3411 22.0059 17.5512 21.7969 17.5512 21.5382C17.5515 21.2796 17.3403 21.0695 17.0824 21.0695Z"/>
</mask>
<path d="M5.37722 21.0695H4.37722V22.0695H5.37722V21.0695ZM17.5512 21.5382L16.5512 21.5368V21.5382H17.5512ZM17.0824 20.0695H5.37722V22.0695H17.0824V20.0695ZM6.37722 21.0695V12.642H4.37722V21.0695H6.37722ZM6.37722 12.642C6.37722 11.8295 5.71824 11.1743 4.90919 11.1743V13.1743C4.61675 13.1743 4.37722 12.9371 4.37722 12.642H6.37722ZM4.90919 11.1743C4.10014 11.1743 3.44116 11.8295 3.44116 12.642H5.44116C5.44116 12.9371 5.20164 13.1743 4.90919 13.1743V11.1743ZM3.44116 12.642V21.0695H5.44116V12.642H3.44116ZM3.44116 21.0695C3.44116 22.1374 4.30882 23.0059 5.37759 23.0059V21.0059C5.39659 21.0059 5.41358 21.0147 5.42299 21.0241C5.43237 21.0335 5.44116 21.0504 5.44116 21.0695H3.44116ZM5.37759 23.0059H17.0831V21.0059H5.37759V23.0059ZM17.0831 23.0059C17.8913 23.0059 18.5512 22.3512 18.5512 21.5382H16.5512C16.5512 21.2426 16.7908 21.0059 17.0831 21.0059V23.0059ZM18.5512 21.5397C18.5523 20.7253 17.8903 20.0695 17.0824 20.0695V22.0695C16.7904 22.0695 16.5508 21.8339 16.5512 21.5368L18.5512 21.5397Z" fill="white" mask="url(#path-4-inside-1_2_308)"/>
</svg>
