<svg width="184" height="39" viewBox="0 0 184 39" fill="none" xmlns="http://www.w3.org/2000/svg">
<path d="M51.7616 17.4679C52.8957 18.0871 54.2061 18.3967 55.6965 18.3967C57.187 18.3967 58.5118 18.0871 59.6315 17.4679C60.7475 16.8487 61.6187 15.9882 62.2487 14.8866C62.8788 13.785 63.192 12.5321 63.192 11.1281V0.532959H58.7242V11.4521C58.7242 12.0821 58.591 12.6185 58.3282 13.0649C58.0654 13.5114 57.709 13.857 57.2626 14.0946C56.8162 14.3358 56.2942 14.4546 55.7001 14.4546C55.1061 14.4546 54.5949 14.3358 54.1233 14.0946C53.6517 13.8534 53.2809 13.5078 53.0073 13.0505C52.7336 12.5969 52.5968 12.0533 52.5968 11.4269V0.532959H48.1795V11.1029C48.1795 12.5105 48.4927 13.767 49.1227 14.8758C49.7528 15.9846 50.6312 16.8487 51.7652 17.4679H51.7616Z" fill="white"/>
<path d="M76.8363 1.21307C75.9255 0.759458 74.9102 0.529053 73.7834 0.529053H66.0179V18.1228H70.4605V11.819H73.787C74.9102 11.819 75.929 11.5958 76.8399 11.1494C77.7507 10.703 78.4671 10.0549 78.9999 9.20172C79.5292 8.34849 79.7956 7.34406 79.7956 6.18482C79.7956 5.02559 79.5292 3.98156 78.9999 3.14633C78.4707 2.3111 77.7507 1.66668 76.8399 1.20947L76.8363 1.21307ZM75.0506 7.47726C74.8346 7.82647 74.5502 8.08569 74.1938 8.25849C73.8374 8.4313 73.445 8.5177 73.0166 8.5177H70.4605V3.82676H73.0166C73.4486 3.82676 73.8374 3.91316 74.1938 4.08596C74.5502 4.25877 74.8346 4.52517 75.0506 4.88159C75.2666 5.238 75.3746 5.67001 75.3746 6.18482C75.3746 6.69964 75.2666 7.12806 75.0506 7.47367V7.47726Z" fill="white"/>
<path d="M86.193 11.8226H89.5195C90.6428 11.8226 91.6616 11.5994 92.5724 11.153C93.4832 10.7066 94.1997 10.0585 94.7325 9.20532C95.2617 8.3521 95.5281 7.34766 95.5281 6.18843C95.5281 5.02919 95.2617 3.98516 94.7325 3.14993C94.2033 2.31471 93.4832 1.67029 92.5724 1.21307C91.6616 0.759458 90.6428 0.529053 89.5195 0.529053H81.7541V18.1228H86.1966V11.819L86.193 11.8226ZM88.7491 3.83395C89.1775 3.83395 89.5699 3.92036 89.9263 4.09316C90.2827 4.26597 90.5672 4.53237 90.7832 4.88878C90.9992 5.24519 91.1072 5.67722 91.1072 6.19203C91.1072 6.70685 90.9992 7.13526 90.7832 7.48087C90.5672 7.83008 90.2827 8.08929 89.9263 8.26209C89.5699 8.4349 89.1775 8.52129 88.7491 8.52129H86.193V3.83035H88.7491V3.83395Z" fill="white"/>
<path d="M110.537 18.1265V14.3787H101.925V10.9802H109.644V7.33332H101.925V4.28042H110.386V0.532715H101.925H101.007H97.4829V18.1265H101.007H101.925H110.537Z" fill="white"/>
<path d="M117.485 11.0054H117.744L122.568 18.1265H127.706L122.313 10.7858C122.774 10.6778 123.209 10.5374 123.613 10.3466C124.538 9.9074 125.261 9.29538 125.783 8.51055C126.305 7.72573 126.565 6.8113 126.565 5.76727C126.565 4.72324 126.309 3.81601 125.794 3.03839C125.279 2.26077 124.574 1.64874 123.674 1.20233C122.774 0.755916 121.726 0.532715 120.534 0.532715H113.039V18.1265H117.482V11.0054H117.485ZM119.915 3.83401C120.642 3.83401 121.2 4.02122 121.589 4.39203C121.978 4.76285 122.172 5.24886 122.172 5.84288C122.172 6.4369 121.978 6.94091 121.589 7.29372C121.2 7.65013 120.642 7.82653 119.915 7.82653H117.485V3.83041H119.915V3.83401Z" fill="white"/>
<path d="M52.8884 21.0823H48.4495V38.676H51.9704H52.8884H60.4594V34.8527H52.8884V21.0823Z" fill="white"/>
<path d="M76.9875 23.3645C76.1451 22.5365 75.1514 21.8957 74.0102 21.4421C72.869 20.9885 71.6197 20.7581 70.2625 20.7581C68.9053 20.7581 67.656 20.9849 66.5148 21.4421C65.3735 21.8993 64.3799 22.5401 63.5375 23.3645C62.6951 24.1926 62.0362 25.1574 61.5646 26.2554C61.093 27.3571 60.859 28.5523 60.859 29.8411C60.859 31.13 61.1002 32.336 61.579 33.452C62.0578 34.5681 62.7239 35.5401 63.5771 36.3681C64.4303 37.1962 65.4275 37.8406 66.5688 38.305C67.71 38.7694 68.9593 38.9998 70.3165 38.9998C71.6737 38.9998 72.8942 38.773 74.0246 38.3158C75.1587 37.8622 76.1451 37.2142 76.9911 36.3789C77.8335 35.5437 78.4924 34.5717 78.964 33.4629C79.4356 32.354 79.6696 31.1552 79.6696 29.8663C79.6696 28.5775 79.432 27.3751 78.964 26.2698C78.4924 25.161 77.8335 24.1926 76.9911 23.3645H76.9875ZM74.5322 32.57C74.1362 33.3476 73.571 33.9525 72.8438 34.3809C72.1166 34.8129 71.2561 35.0253 70.2625 35.0253C69.5173 35.0253 68.8477 34.9065 68.2536 34.6653C67.6596 34.4241 67.1448 34.0785 66.7164 33.6212C66.2844 33.1676 65.9604 32.6204 65.7372 31.9832C65.5139 31.346 65.4023 30.6296 65.4023 29.8375C65.4023 28.8115 65.6004 27.9115 65.9964 27.1339C66.3924 26.3562 66.954 25.7586 67.6848 25.3338C68.4156 24.909 69.2725 24.7002 70.2661 24.7002C71.0113 24.7002 71.6809 24.8226 72.275 25.071C72.869 25.3194 73.3838 25.6722 73.8122 26.1258C74.2406 26.5794 74.5682 27.123 74.7914 27.7495C75.0146 28.3795 75.1263 29.0743 75.1263 29.8339C75.1263 30.878 74.9282 31.7852 74.5322 32.5628V32.57Z" fill="white"/>
<path d="M89.7139 32.1236L94.448 32.2424C94.376 32.462 94.2932 32.6708 94.1924 32.8688C93.836 33.5637 93.3248 34.0929 92.6552 34.4565C91.9855 34.8201 91.1719 35.0037 90.2107 35.0037C89.2494 35.0037 88.4034 34.7877 87.669 34.3593C86.9346 33.9309 86.355 33.3261 85.9337 32.5484C85.5125 31.7708 85.3001 30.8708 85.3001 29.8447C85.3001 28.8187 85.5233 27.9259 85.9697 27.1663C86.4162 26.4066 87.0174 25.8126 87.7698 25.3914C88.5222 24.9702 89.3791 24.7578 90.3367 24.7578C91.2943 24.7578 92.1079 24.9378 92.8172 25.2906C93.53 25.647 94.1816 26.1798 94.7792 26.8927L97.7565 23.9154C96.9609 22.9397 95.9277 22.1729 94.6532 21.6185C93.3788 21.0641 91.9567 20.7869 90.3835 20.7869C89.0586 20.7869 87.8166 21.0137 86.6502 21.4709C85.4837 21.9245 84.4613 22.5617 83.5865 23.3826C82.708 24.1998 82.0276 25.161 81.538 26.2626C81.0484 27.3643 80.8072 28.5667 80.8072 29.8736C80.8072 31.1804 81.0448 32.3576 81.5128 33.4593C81.9844 34.5609 82.6468 35.5221 83.4965 36.3502C84.3497 37.1782 85.3397 37.819 86.4738 38.2726C87.6078 38.7262 88.8426 38.9566 90.1855 38.9566C91.9711 38.9566 93.5408 38.5822 94.8872 37.8262C96.2373 37.0738 97.2921 35.9685 98.0517 34.5141C98.8113 33.0596 99.193 31.2812 99.193 29.1787V28.5091H89.7139V32.1308V32.1236Z" fill="white"/>
<path d="M105.749 21.0823H101.306V38.676H105.749V21.0823Z" fill="white"/>
<path d="M119.433 29.5929C118.943 29.1789 118.41 28.8405 117.831 28.5741C117.251 28.3113 116.668 28.0773 116.081 27.8793C115.494 27.6813 114.958 27.4869 114.468 27.296C113.979 27.1052 113.586 26.8856 113.291 26.6372C112.992 26.3888 112.845 26.0684 112.845 25.6688C112.845 25.2692 113.017 24.9668 113.367 24.7508C113.712 24.5348 114.195 24.4304 114.807 24.4304C115.451 24.4304 116.049 24.5636 116.592 24.8264C117.14 25.0892 117.676 25.4888 118.205 26.018L121.035 23.2135C120.34 22.4539 119.454 21.8563 118.378 21.4279C117.302 20.9958 116.128 20.7834 114.853 20.7834C113.579 20.7834 112.463 20.9994 111.505 21.4279C110.544 21.8599 109.795 22.4683 109.259 23.2639C108.722 24.0595 108.452 25.0172 108.452 26.144C108.452 27.0224 108.6 27.7569 108.899 28.3509C109.198 28.9485 109.59 29.4417 110.076 29.8413C110.562 30.2373 111.102 30.5721 111.689 30.8458C112.276 31.1194 112.863 31.3498 113.449 31.5406C114.036 31.7314 114.573 31.9294 115.062 32.1382C115.552 32.3434 115.944 32.5846 116.239 32.8582C116.538 33.1318 116.686 33.4738 116.686 33.8879C116.686 34.3343 116.484 34.6871 116.077 34.9427C115.671 35.1983 115.098 35.3279 114.353 35.3279C113.475 35.3279 112.69 35.1587 111.995 34.8203C111.3 34.4819 110.645 33.9887 110.033 33.3442L107.228 36.1739C108.121 37.1352 109.111 37.8372 110.195 38.2836C111.279 38.73 112.557 38.9532 114.029 38.9532C116.247 38.9532 117.971 38.4744 119.202 37.5132C120.434 36.5555 121.053 35.1983 121.053 33.445C121.053 32.5522 120.905 31.7926 120.606 31.1626C120.308 30.5361 119.915 30.0141 119.429 29.6001L119.433 29.5929Z" fill="white"/>
<path d="M121.604 24.902H126.989V38.676H131.428V24.902H136.814V21.0823H121.604V24.902Z" fill="white"/>
<path d="M143.269 21.0823H138.827V38.676H143.269V21.0823Z" fill="white"/>
<path d="M156.568 34.6186C155.938 34.8742 155.211 35.0038 154.383 35.0038C153.67 35.0038 153.022 34.885 152.435 34.6438C151.848 34.4026 151.341 34.057 150.909 33.5998C150.48 33.1462 150.142 32.6026 149.904 31.9761C149.663 31.3497 149.544 30.6441 149.544 29.8665C149.544 29.0888 149.663 28.3868 149.904 27.7568C150.145 27.1304 150.48 26.5868 150.909 26.1331C151.341 25.6795 151.848 25.3339 152.435 25.1035C153.022 24.8731 153.674 24.7543 154.383 24.7543C155.211 24.7543 155.931 24.8875 156.543 25.1503C157.155 25.4131 157.666 25.7803 158.08 26.2411L161.057 23.2639C160.215 22.4862 159.236 21.8778 158.13 21.4386C157.022 20.9994 155.772 20.7798 154.383 20.7798C152.993 20.7798 151.83 21.0102 150.696 21.4746C149.562 21.939 148.569 22.5762 147.719 23.3863C146.866 24.1963 146.207 25.1539 145.735 26.2519C145.264 27.3536 145.03 28.556 145.03 29.8629C145.03 31.1697 145.267 32.3541 145.735 33.4594C146.207 34.5682 146.869 35.533 147.719 36.3503C148.572 37.1675 149.569 37.8047 150.711 38.2619C151.852 38.7191 153.094 38.9459 154.433 38.9459C155.888 38.9459 157.158 38.7299 158.242 38.3015C159.326 37.8695 160.298 37.2683 161.158 36.4907L158.181 33.5134C157.734 33.9922 157.198 34.363 156.568 34.6186Z" fill="white"/>
<path d="M175.353 31.1554C175.055 30.5289 174.662 30.0069 174.176 29.5929C173.687 29.1789 173.154 28.8405 172.574 28.5741C171.995 28.3113 171.411 28.0773 170.824 27.8793C170.238 27.6813 169.701 27.4869 169.212 27.296C168.722 27.1052 168.33 26.8856 168.034 26.6372C167.736 26.3888 167.588 26.0684 167.588 25.6688C167.588 25.2692 167.761 24.9668 168.11 24.7508C168.456 24.5348 168.938 24.4304 169.55 24.4304C170.194 24.4304 170.792 24.5636 171.336 24.8264C171.883 25.0892 172.419 25.4888 172.949 26.018L175.778 23.2135C175.083 22.4539 174.198 21.8563 173.121 21.4279C172.045 20.9958 170.871 20.7834 169.597 20.7834C168.322 20.7834 167.206 20.9994 166.249 21.4279C165.288 21.8599 164.539 22.4683 164.002 23.2639C163.466 24.0595 163.196 25.0172 163.196 26.144C163.196 27.0224 163.343 27.7569 163.642 28.3509C163.941 28.9485 164.333 29.4417 164.819 29.8413C165.305 30.2373 165.846 30.5721 166.432 30.8458C167.019 31.1194 167.606 31.3498 168.193 31.5406C168.78 31.7314 169.316 31.9294 169.806 32.1382C170.295 32.347 170.688 32.5846 170.983 32.8582C171.282 33.1318 171.429 33.4738 171.429 33.8879C171.429 34.3343 171.228 34.6871 170.821 34.9427C170.414 35.1983 169.842 35.3279 169.096 35.3279C168.218 35.3279 167.433 35.1587 166.738 34.8203C166.044 34.4819 165.388 33.9887 164.776 33.3442L161.972 36.1739C162.865 37.1352 163.855 37.8372 164.938 38.2836C166.022 38.73 167.3 38.9532 168.772 38.9532C170.99 38.9532 172.715 38.4744 173.946 37.5132C175.177 36.5555 175.796 35.1983 175.796 33.445C175.796 32.5522 175.649 31.7926 175.35 31.1626L175.353 31.1554Z" fill="white"/>
<path d="M38.7147 11.7112V0.604816C38.7147 0.270006 38.4447 0 38.1099 0H15.8972C15.5624 0 15.2924 0.270006 15.2924 0.604816V11.1063C15.2924 11.4412 15.5624 11.7112 15.8972 11.7112H26.3988C26.7336 11.7112 27.0036 11.9812 27.0036 12.316V22.8175C27.0036 23.1523 27.2736 23.4223 27.6084 23.4223H38.1099C38.4447 23.4223 38.7147 23.1523 38.7147 22.8175V11.7112Z" fill="#F16522"/>
<path d="M11.9335 38.719C8.87698 38.719 5.81688 37.5562 3.49121 35.2269C-1.16374 30.572 -1.16374 22.9973 3.49121 18.3424L9.25499 12.5786L14.0431 17.3668L8.27936 23.1305C6.26329 25.1466 6.26329 28.4263 8.27936 30.4424C10.2954 32.4584 13.5751 32.4584 15.5912 30.4424L21.355 24.6786L26.1431 29.4667L20.3793 35.2305C18.0501 37.5598 14.9936 38.7226 11.9371 38.7226L11.9335 38.719Z" fill="white"/>
<path d="M180.606 38.9243C182.262 38.9243 183.605 37.5817 183.605 35.9254C183.605 34.2692 182.262 32.9265 180.606 32.9265C178.95 32.9265 177.607 34.2692 177.607 35.9254C177.607 37.5817 178.95 38.9243 180.606 38.9243Z" fill="#6DBC45"/>
</svg>
