<svg width="15" height="15" viewBox="0 0 15 15" fill="none" xmlns="http://www.w3.org/2000/svg">
<path d="M14.3496 11.119C13.8562 10.6065 13.3359 10.1206 12.791 9.663C12.1103 9.08137 11.5047 9.1753 11.0236 9.59476C10.5408 10.0131 10.2988 10.2215 9.81363 10.6367V10.6368C9.70213 10.7295 9.56088 10.779 9.41591 10.7757C9.27094 10.7726 9.13189 10.7171 9.0246 10.6196C8.24194 9.94413 5.05581 6.75799 4.38051 5.97526C4.28297 5.86796 4.2274 5.72903 4.22426 5.58404C4.22112 5.43896 4.27053 5.29771 4.3633 5.18622C4.77845 4.70096 4.98691 4.45902 5.40522 3.97623C5.82469 3.49516 5.9185 2.88957 5.33697 2.2089C4.8795 1.66411 4.39354 1.14388 3.88106 0.650368C3.03844 -0.176559 2.22438 -0.216202 1.46009 0.538762C0.984012 1.03763 0.593949 1.61194 0.305643 2.2383C-1.07434 5.17726 2.56837 9.03407 4.26699 10.7329C5.96576 12.4316 9.8227 16.0742 12.7617 14.6944C13.3881 14.4061 13.9624 14.0161 14.4613 13.54C15.2161 12.7757 15.1766 11.9617 14.3496 11.1191V11.119Z" fill="#F26522"/>
</svg>
