<svg width="26" height="26" viewBox="0 0 26 26" fill="none" xmlns="http://www.w3.org/2000/svg">
<path d="M4.77143 25C3.77152 24.9989 2.81287 24.6012 2.10583 23.8942C1.39878 23.1871 1.00109 22.2285 1 21.2286V7.51429C1.00111 6.57366 1.35318 5.6673 1.9873 4.97256C2.62142 4.27782 3.49196 3.8447 4.42857 3.75794V2.02857C4.42857 1.75578 4.53694 1.49416 4.72983 1.30126C4.92273 1.10837 5.18435 1 5.45714 1C5.72994 1 5.99156 1.10837 6.18445 1.30126C6.37735 1.49416 6.48571 1.75578 6.48571 2.02857V3.74286H19.5143V2.02857C19.5143 1.75578 19.6227 1.49416 19.8155 1.30126C20.0084 1.10837 20.2701 1 20.5429 1C20.8157 1 21.0773 1.10837 21.2702 1.30126C21.4631 1.49416 21.5714 1.75578 21.5714 2.02857V3.75794C22.508 3.8447 23.3786 4.27782 24.0127 4.97256C24.6468 5.6673 24.9989 6.57366 25 7.51429V21.2286C24.9993 22.2286 24.6017 23.1874 23.8946 23.8946C23.1874 24.6017 22.2286 24.9993 21.2286 25H4.77143ZM3.05714 21.2286C3.05751 21.6831 3.23823 22.1189 3.55965 22.4404C3.88106 22.7618 4.31688 22.9425 4.77143 22.9429H21.2286C21.6831 22.9425 22.1189 22.7618 22.4404 22.4404C22.7618 22.1189 22.9425 21.6831 22.9429 21.2286V11.9714H3.05714V21.2286ZM22.9429 9.91429V7.51429C22.9425 7.05974 22.7618 6.62392 22.4404 6.3025C22.1189 5.98109 21.6831 5.80036 21.2286 5.8H4.77143C4.31688 5.80036 3.88106 5.98109 3.55965 6.3025C3.23823 6.62392 3.05751 7.05974 3.05714 7.51429V9.91429H22.9429Z" fill="white" stroke="#372CBB" stroke-width="0.8"/>
</svg>
